<svg style="display:none"><symbol viewBox="0 0 31.375 31.41" id="social-fb"><title>social-fb</title><path d="M15.677.01A15.69 15.69 0 1 1-.015 15.7 15.687 15.687 0 0 1 15.677.01zM16.45 25v-9.29h2.743l.285-3.09H16.45v-1.86c0-.89.085-1.26 1.367-1.26h1.764V6.08h-2.792c-3.294 0-4.082 1.54-4.082 4.34v2.2h-1.889v3.09h1.894V25h3.738z"/></symbol><symbol viewBox="0 0 31.376 31.41" id="social-inst"><title>social-inst</title><path d="M15.677.01A15.69 15.69 0 1 1-.015 15.7 15.688 15.688 0 0 1 15.677.01zm6.271 23.61a1.745 1.745 0 0 0 1.745-1.75V9.56a1.743 1.743 0 0 0-1.745-1.74H9.621a1.743 1.743 0 0 0-1.745 1.74v12.31a1.745 1.745 0 0 0 1.745 1.75h12.328zm-1.375-9.1a4.921 4.921 0 1 1-9.529 0h-1.38v6.78a.609.609 0 0 0 .611.61H21.34a.609.609 0 0 0 .612-.61v-6.78h-1.38zm-4.761-1.61a2.848 2.848 0 1 1 0 5.68 2.84 2.84 0 0 1 0-5.68zm3.7-3.31h1.865a.609.609 0 0 1 .611.61v1.86a.609.609 0 0 1-.611.61h-1.865a.609.609 0 0 1-.612-.61v-1.86a.609.609 0 0 1 .612-.61z"/></symbol><symbol viewBox="0 0 31.375 31.4" id="social-tw"><title>social-tw</title><path d="M15.677.01A15.69 15.69 0 1 1-.015 15.7 15.688 15.688 0 0 1 15.677.01zm9.138 10.81a7.331 7.331 0 0 1-2.092.57 3.662 3.662 0 0 0 1.6-2.02 7.4 7.4 0 0 1-2.313.89 3.645 3.645 0 0 0-6.207 3.32 10.316 10.316 0 0 1-7.507-3.81 3.655 3.655 0 0 0 1.127 4.87 3.68 3.68 0 0 1-1.65-.46v.05a3.651 3.651 0 0 0 2.922 3.57 3.789 3.789 0 0 1-.96.13 3.86 3.86 0 0 1-.685-.07 3.643 3.643 0 0 0 3.4 2.53 7.29 7.29 0 0 1-4.523 1.56 8.291 8.291 0 0 1-.869-.05 10.354 10.354 0 0 0 15.946-8.73c0-.16 0-.31-.011-.47a7.33 7.33 0 0 0 1.822-1.88z"/></symbol><symbol viewBox="0 0 31.375 31.41" id="social-vk"><title>social-vk</title><path d="M15.677.01A15.69 15.69 0 1 1-.015 15.7 15.687 15.687 0 0 1 15.677.01zm5.967 18.25a3.1 3.1 0 0 0-.757-2.2 3.7 3.7 0 0 0-2.016-1.09v-.07a2.886 2.886 0 0 0 1.371-1.14 3.211 3.211 0 0 0 .5-1.77 3.133 3.133 0 0 0-.362-1.52 2.6 2.6 0 0 0-1.091-1.05 4.522 4.522 0 0 0-1.446-.48 17.993 17.993 0 0 0-2.269-.11h-4.8v13.59h5.438a8.906 8.906 0 0 0 2.331-.25 4.783 4.783 0 0 0 1.686-.86 3.684 3.684 0 0 0 1.032-1.27 3.909 3.909 0 0 0 .383-1.78zm-4.372-5.59a1.517 1.517 0 0 0-.169-.67 1 1 0 0 0-.527-.5 2.111 2.111 0 0 0-.8-.17c-.308 0-.766-.01-1.374-.01h-.237v2.88h.43c.583 0 .994-.01 1.228-.02a2.044 2.044 0 0 0 .727-.19 1.129 1.129 0 0 0 .563-.53 1.9 1.9 0 0 0 .157-.79zm.856 5.53a1.673 1.673 0 0 0-.255-.99 1.533 1.533 0 0 0-.767-.54 2.658 2.658 0 0 0-.853-.13c-.362-.01-.849-.01-1.456-.01h-.63v3.4h.184c.888 0 1.5-.01 1.842-.02a2.867 2.867 0 0 0 1.041-.24 1.381 1.381 0 0 0 .68-.59 1.813 1.813 0 0 0 .214-.88z"/></symbol></svg>